<svg width="1000" height="1000" viewBox="0 0 1000 1000" fill="none" xmlns="http://www.w3.org/2000/svg">
<g clip-path="url(#clip0_75_2)">
<path d="M126.042 603.125C119.792 603.125 114.584 601.042 110.417 596.875C106.25 592.708 104.167 587.5 104.167 581.25C104.167 575 106.25 569.792 110.417 565.625C114.584 561.458 119.792 559.375 126.042 559.375C132.292 559.375 137.5 561.458 141.667 565.625C145.834 569.792 147.917 575 147.917 581.25C147.917 587.5 145.834 592.708 141.667 596.875C137.5 601.042 132.292 603.125 126.042 603.125ZM126.042 440.625C119.792 440.625 114.584 438.542 110.417 434.375C106.25 430.208 104.167 425 104.167 418.75C104.167 412.5 106.25 407.292 110.417 403.125C114.584 398.958 119.792 396.875 126.042 396.875C132.292 396.875 137.5 398.958 141.667 403.125C145.834 407.292 147.917 412.5 147.917 418.75C147.917 425 145.834 430.208 141.667 434.375C137.5 438.542 132.292 440.625 126.042 440.625V440.625ZM250 789.583C238.889 789.583 229.514 785.764 221.875 778.125C214.236 770.486 210.417 761.111 210.417 750C210.417 738.889 214.236 729.514 221.875 721.875C229.514 714.236 238.889 710.417 250 710.417C261.111 710.417 270.486 714.236 278.125 721.875C285.764 729.514 289.584 738.889 289.584 750C289.584 761.111 285.764 770.486 278.125 778.125C270.486 785.764 261.111 789.583 250 789.583ZM250 620.833C238.889 620.833 229.514 617.014 221.875 609.375C214.236 601.736 210.417 592.361 210.417 581.25C210.417 570.139 214.236 560.764 221.875 553.125C229.514 545.486 238.889 541.667 250 541.667C261.111 541.667 270.486 545.486 278.125 553.125C285.764 560.764 289.584 570.139 289.584 581.25C289.584 592.361 285.764 601.736 278.125 609.375C270.486 617.014 261.111 620.833 250 620.833V620.833ZM250 458.333C238.889 458.333 229.514 454.514 221.875 446.875C214.236 439.236 210.417 429.861 210.417 418.75C210.417 407.639 214.236 398.264 221.875 390.625C229.514 382.986 238.889 379.167 250 379.167C261.111 379.167 270.486 382.986 278.125 390.625C285.764 398.264 289.584 407.639 289.584 418.75C289.584 429.861 285.764 439.236 278.125 446.875C270.486 454.514 261.111 458.333 250 458.333V458.333ZM250 289.583C238.889 289.583 229.514 285.764 221.875 278.125C214.236 270.486 210.417 261.111 210.417 250C210.417 238.889 214.236 229.514 221.875 221.875C229.514 214.236 238.889 210.417 250 210.417C261.111 210.417 270.486 214.236 278.125 221.875C285.764 229.514 289.584 238.889 289.584 250C289.584 261.111 285.764 270.486 278.125 278.125C270.486 285.764 261.111 289.583 250 289.583V289.583ZM418.75 637.5C403.473 637.5 390.278 631.944 379.167 620.833C368.056 609.722 362.5 596.528 362.5 581.25C362.5 565.278 368.056 551.91 379.167 541.146C390.278 530.382 403.473 525 418.75 525C434.723 525 448.091 530.382 458.854 541.146C469.618 551.91 475 565.278 475 581.25C475 596.528 469.618 609.722 458.854 620.833C448.091 631.944 434.723 637.5 418.75 637.5ZM418.75 475C403.473 475 390.278 469.444 379.167 458.333C368.056 447.222 362.5 434.028 362.5 418.75C362.5 402.778 368.056 389.41 379.167 378.646C390.278 367.882 403.473 362.5 418.75 362.5C434.723 362.5 448.091 367.882 458.854 378.646C469.618 389.41 475 402.778 475 418.75C475 434.028 469.618 447.222 458.854 458.333C448.091 469.444 434.723 475 418.75 475ZM418.75 789.583C407.639 789.583 398.264 785.764 390.625 778.125C382.986 770.486 379.167 761.111 379.167 750C379.167 738.889 382.986 729.514 390.625 721.875C398.264 714.236 407.639 710.417 418.75 710.417C429.861 710.417 439.236 714.236 446.875 721.875C454.514 729.514 458.334 738.889 458.334 750C458.334 761.111 454.514 770.486 446.875 778.125C439.236 785.764 429.861 789.583 418.75 789.583V789.583ZM418.75 289.583C407.639 289.583 398.264 285.764 390.625 278.125C382.986 270.486 379.167 261.111 379.167 250C379.167 238.889 382.986 229.514 390.625 221.875C398.264 214.236 407.639 210.417 418.75 210.417C429.861 210.417 439.236 214.236 446.875 221.875C454.514 229.514 458.334 238.889 458.334 250C458.334 261.111 454.514 270.486 446.875 278.125C439.236 285.764 429.861 289.583 418.75 289.583V289.583ZM418.75 895.833C412.5 895.833 407.292 893.75 403.125 889.583C398.959 885.417 396.875 880.208 396.875 873.958C396.875 867.708 398.959 862.5 403.125 858.333C407.292 854.167 412.5 852.083 418.75 852.083C425 852.083 430.209 854.167 434.375 858.333C438.542 862.5 440.625 867.708 440.625 873.958C440.625 880.208 438.542 885.417 434.375 889.583C430.209 893.75 425 895.833 418.75 895.833ZM418.75 147.917C412.5 147.917 407.292 145.833 403.125 141.667C398.959 137.5 396.875 132.292 396.875 126.042C396.875 119.792 398.959 114.583 403.125 110.417C407.292 106.25 412.5 104.167 418.75 104.167C425 104.167 430.209 106.25 434.375 110.417C438.542 114.583 440.625 119.792 440.625 126.042C440.625 132.292 438.542 137.5 434.375 141.667C430.209 145.833 425 147.917 418.75 147.917ZM581.25 637.5C565.973 637.5 552.778 631.944 541.667 620.833C530.556 609.722 525 596.528 525 581.25C525 565.278 530.556 551.91 541.667 541.146C552.778 530.382 565.973 525 581.25 525C597.223 525 610.591 530.382 621.355 541.146C632.118 551.91 637.5 565.278 637.5 581.25C637.5 596.528 632.118 609.722 621.355 620.833C610.591 631.944 597.223 637.5 581.25 637.5ZM581.25 475C565.973 475 552.778 469.444 541.667 458.333C530.556 447.222 525 434.028 525 418.75C525 402.778 530.556 389.41 541.667 378.646C552.778 367.882 565.973 362.5 581.25 362.5C597.223 362.5 610.591 367.882 621.355 378.646C632.118 389.41 637.5 402.778 637.5 418.75C637.5 434.028 632.118 447.222 621.355 458.333C610.591 469.444 597.223 475 581.25 475ZM581.25 789.583C570.139 789.583 560.764 785.764 553.125 778.125C545.486 770.486 541.667 761.111 541.667 750C541.667 738.889 545.486 729.514 553.125 721.875C560.764 714.236 570.139 710.417 581.25 710.417C592.361 710.417 601.736 714.236 609.375 721.875C617.014 729.514 620.834 738.889 620.834 750C620.834 761.111 617.014 770.486 609.375 778.125C601.736 785.764 592.361 789.583 581.25 789.583V789.583ZM581.25 289.583C570.139 289.583 560.764 285.764 553.125 278.125C545.486 270.486 541.667 261.111 541.667 250C541.667 238.889 545.486 229.514 553.125 221.875C560.764 214.236 570.139 210.417 581.25 210.417C592.361 210.417 601.736 214.236 609.375 221.875C617.014 229.514 620.834 238.889 620.834 250C620.834 261.111 617.014 270.486 609.375 278.125C601.736 285.764 592.361 289.583 581.25 289.583V289.583ZM581.25 147.917C575 147.917 569.792 145.833 565.625 141.667C561.459 137.5 559.375 132.292 559.375 126.042C559.375 119.792 561.459 114.583 565.625 110.417C569.792 106.25 575 104.167 581.25 104.167C587.5 104.167 592.709 106.25 596.875 110.417C601.042 114.583 603.125 119.792 603.125 126.042C603.125 132.292 601.042 137.5 596.875 141.667C592.709 145.833 587.5 147.917 581.25 147.917ZM587.5 895.833C581.25 895.833 576.042 893.75 571.875 889.583C567.709 885.417 565.625 880.208 565.625 873.958C565.625 867.708 567.709 862.5 571.875 858.333C576.042 854.167 581.25 852.083 587.5 852.083C593.75 852.083 598.959 854.167 603.125 858.333C607.292 862.5 609.375 867.708 609.375 873.958C609.375 880.208 607.292 885.417 603.125 889.583C598.959 893.75 593.75 895.833 587.5 895.833ZM750 789.583C738.889 789.583 729.514 785.764 721.875 778.125C714.236 770.486 710.417 761.111 710.417 750C710.417 738.889 714.236 729.514 721.875 721.875C729.514 714.236 738.889 710.417 750 710.417C761.111 710.417 770.486 714.236 778.125 721.875C785.764 729.514 789.584 738.889 789.584 750C789.584 761.111 785.764 770.486 778.125 778.125C770.486 785.764 761.111 789.583 750 789.583V789.583ZM750 620.833C738.889 620.833 729.514 617.014 721.875 609.375C714.236 601.736 710.417 592.361 710.417 581.25C710.417 570.139 714.236 560.764 721.875 553.125C729.514 545.486 738.889 541.667 750 541.667C761.111 541.667 770.486 545.486 778.125 553.125C785.764 560.764 789.584 570.139 789.584 581.25C789.584 592.361 785.764 601.736 778.125 609.375C770.486 617.014 761.111 620.833 750 620.833V620.833ZM750 458.333C738.889 458.333 729.514 454.514 721.875 446.875C714.236 439.236 710.417 429.861 710.417 418.75C710.417 407.639 714.236 398.264 721.875 390.625C729.514 382.986 738.889 379.167 750 379.167C761.111 379.167 770.486 382.986 778.125 390.625C785.764 398.264 789.584 407.639 789.584 418.75C789.584 429.861 785.764 439.236 778.125 446.875C770.486 454.514 761.111 458.333 750 458.333V458.333ZM750 289.583C738.889 289.583 729.514 285.764 721.875 278.125C714.236 270.486 710.417 261.111 710.417 250C710.417 238.889 714.236 229.514 721.875 221.875C729.514 214.236 738.889 210.417 750 210.417C761.111 210.417 770.486 214.236 778.125 221.875C785.764 229.514 789.584 238.889 789.584 250C789.584 261.111 785.764 270.486 778.125 278.125C770.486 285.764 761.111 289.583 750 289.583V289.583ZM873.959 603.125C867.709 603.125 862.5 601.042 858.334 596.875C854.167 592.708 852.084 587.5 852.084 581.25C852.084 575 854.167 569.792 858.334 565.625C862.5 561.458 867.709 559.375 873.959 559.375C880.209 559.375 885.417 561.458 889.584 565.625C893.75 569.792 895.834 575 895.834 581.25C895.834 587.5 893.75 592.708 889.584 596.875C885.417 601.042 880.209 603.125 873.959 603.125ZM873.959 440.625C867.709 440.625 862.5 438.542 858.334 434.375C854.167 430.208 852.084 425 852.084 418.75C852.084 412.5 854.167 407.292 858.334 403.125C862.5 398.958 867.709 396.875 873.959 396.875C880.209 396.875 885.417 398.958 889.584 403.125C893.75 407.292 895.834 412.5 895.834 418.75C895.834 425 893.75 430.208 889.584 434.375C885.417 438.542 880.209 440.625 873.959 440.625Z" fill="white"/>
</g>
<defs>
<clipPath id="clip0_75_2">
<rect width="1000" height="1000" fill="white"/>
</clipPath>
</defs>
</svg>
